# xmcd CD database file
# Copyright (C) 1993-1998 Ti Kan
#
# Track frame offsets:
#  150
#  10842
#  32450
#  45557
#  64477
#  82942
#  103335
#  117017
#  131125
#  151065
#  167140
#  182097
#
# Disc length: 2665 seconds
#
# Revision: 1
# Processed by: cddbd v1.4b41PL1 Copyright (c) Steve Scherf et al.
# Submitted via: KiC 2.1 - (C) 1996-1998 Alwin Hoogerdijk
#
DISCID=940a670c
DTITLE=Various Artist - Rocky Mountain High - A Tribute to John Denver
DYEAR=1900
DGENRE=
TTITLE0=Thank God I'm A Country Boy
TTITLE1=Calypso
TTITLE2=Annie's Song
TTITLE3=Rocky Mountain High
TTITLE4=Leavin' On A Jet Plane
TTITLE5=I'm Sorry
TTITLE6=Sunshine On My Shoulders
TTITLE7=Some Days Are Diamonds (Some Days Are Stone)
TTITLE8=Back Home Again
TTITLE9=Fly Away
TTITLE10=Sweet Surrender
TTITLE11=Take Me Home Country Roads
EXTD=
EXTT0=
EXTT1=
EXTT2=
EXTT3=
EXTT4=
EXTT5=
EXTT6=
EXTT7=
EXTT8=
EXTT9=
EXTT10=
EXTT11=
PLAYORDER=
